PathFileType	4	(X/Y/Z)	D:\MotionData\Pi-Spi Study\20230118_AMCsubject1\Trimmed_left_abd_001_rotated.trc
DataRate	CameraRate	NumFrames	NumMarkers	Units	OrigDataRate	OrigDataStartFrame	OrigNumFrames
200.00	200.00	       10	35	mm	200.00	26	       200
Frame#	Time	C7			Sternum			r_AMC1			r_AMC2			r_AMC3			l_AMC1			l_AMC2			l_AMC3			PX			T8			r_humerous			r_elbow_medial			r_elbow_lateral			r_forearm			r_wrist_radius			r_wrist_ulna			r_MCP_1			r_MCP_3			l_humerous			l_elbow_medial			l_elbow_lateral			l_forearm			l_wrist_radius			l_wrist_ulna			l_MCP_1			l_MCP_3			r_ASIS			r_PSIS			l_ASIS			l_PSIS			r_IC			l_IC			TS			AI			AA			
		X1	Y1	Z1	X2	Y2	Z2	X3	Y3	Z3	X4	Y4	Z4	X5	Y5	Z5	X6	Y6	Z6	X7	Y7	Z7	X8	Y8	Z8	X9	Y9	Z9	X10	Y10	Z10	X11	Y11	Z11	X12	Y12	Z12	X13	Y13	Z13	X14	Y14	Z14	X15	Y15	Z15	X16	Y16	Z16	X17	Y17	Z17	X18	Y18	Z18	X19	Y19	Z19	X20	Y20	Z20	X21	Y21	Z21	X22	Y22	Z22	X23	Y23	Z23	X24	Y24	Z24	X25	Y25	Z25	X26	Y26	Z26	X27	Y27	Z27	X28	Y28	Z28	X29	Y29	Z29	X30	Y30	Z30	X31	Y31	Z31	X32	Y32	Z32	X33	Y33	Z33	X34	Y34	Z34	X35	Y35	Z35	

26	0.125	208.2	1374.5743	-207.4441	336.6178	1302.5925	-200.2831	208.8563	1315.2051	-42.3405	246.9045	1311.6467	-10.2126	267.8677	1346.2067	-30.3183	229.1111	1324.3574	-373.2262	268.0102	1316.1382	-405.0833	292.0138	1351.5573	-375.175	390.951	1112.5741	-196.4052	158.0688	1191.3475	-218.0838	314.246	1124.9104	-2.6105	250.0001	986.3036	-33.778	256.4293	995.2642	34.527	311.9657	841.2197	60.2237	364.1114	779.5982	44.7961	315.0663	771.8809	59.8768	387.2401	697.6894	59.2354	337.8608	692.8151	70.1891	351.7745	1123.0604	-396.738	290.4342	993.6679	-369.1727	294.9898	989.4188	-421.4543	330.2486	840.0799	-453.8593	371.4405	766.8859	-448.8122	326.4702	763.2667	-448.348	379.6397	687.4551	-459.2243	330.9026	684.2526	-453.5983	376.0127	906.7558	-67.2508	186.8717	923.9614	-153.5344	380.437	893.2467	-329.3976	189.2742	918.6356	-256.9955	285.9587	966.1471	-42.1629	289.1696	938.7687	-368.0019	133.9612	1309.0293	-323.8902	119.7056	1209.166	-315.6093	210.661	1293.5209	-437.8576
27	0.13	208.1877	1374.5654	-207.41	336.6074	1302.5747	-200.2306	208.8628	1315.2174	-42.3363	246.9047	1311.6776	-10.2018	267.8796	1346.2065	-30.3181	228.9588	1324.4138	-373.4422	267.9779	1316.1283	-405.0805	292.016	1351.6392	-375.4656	390.9502	1112.5395	-196.4377	158.064	1191.3538	-218.0486	314.2585	1124.9307	-2.6205	250.0427	986.2864	-33.8107	256.4436	995.2535	34.5021	311.9001	841.2391	60.3069	364.0436	779.6517	44.8456	315.0541	771.8887	59.8721	387.2391	697.6863	59.2317	337.9185	692.7595	70.2164	351.7386	1123.0844	-396.7944	290.4492	993.6702	-369.1509	294.9349	989.4271	-421.4291	330.2432	840.097	-453.8503	371.4187	766.9184	-448.7824	326.4485	763.2639	-448.3312	379.5299	687.5992	-459.2541	330.889	684.272	-453.5662	376.092	906.7667	-67.2191	186.5595	924.1829	-153.5375	380.4259	893.2571	-329.3889	189.2808	918.6253	-256.9782	285.8804	966.1899	-42.1289	289.2474	938.7515	-367.9913	133.9351	1309.0333	-323.8421	119.6809	1209.2024	-315.5313	210.6558	1293.5537	-437.8457
28	0.135	208.1684	1374.5855	-207.4177	336.6184	1302.561	-200.2586	208.863	1315.2241	-42.3093	246.8836	1311.6999	-10.1921	267.8662	1346.2134	-30.2926	229.0341	1324.4065	-373.2005	267.9807	1316.1199	-405.0655	291.933	1351.7311	-375.5175	390.9327	1112.5958	-196.4105	158.0563	1191.3459	-218.0338	314.2458	1124.9121	-2.5758	249.958	986.3098	-33.7368	256.4203	995.2878	34.5676	311.9157	841.2593	60.2845	364.12	779.6032	44.8436	315.0577	771.8853	59.9421	387.2844	697.6231	59.2498	337.8413	692.8439	70.2333	351.7049	1123.1085	-396.7697	290.4248	993.6658	-369.1057	294.9598	989.4009	-421.4231	330.2339	840.0927	-453.8393	371.36	766.9831	-448.7757	326.4384	763.2636	-448.3207	379.6001	687.3845	-459.1199	330.8607	684.2727	-453.5631	376.0924	906.7471	-67.2444	186.8772	923.9429	-153.5039	380.4441	893.239	-329.374	189.2678	918.6303	-256.9817	285.8376	966.233	-42.1301	289.1999	938.737	-367.9936	133.9424	1309.0418	-323.8178	119.6512	1209.1871	-315.5231	210.6107	1293.5536	-437.8327
29	0.14	208.1058	1374.5007	-207.3978	336.2289	1302.2382	-200.3257	208.8686	1315.2002	-42.3051	246.912	1311.6367	-10.1823	267.842	1346.2059	-30.2751	229.0887	1324.3032	-373.1948	267.9452	1316.1134	-405.0425	291.9448	1351.5552	-375.1628	390.9582	1112.5844	-196.3998	158.0282	1191.3503	-217.9795	314.275	1124.8866	-2.5887	250.0164	986.3093	-33.7376	256.391	995.262	34.5898	311.9658	841.2192	60.3091	364.0799	779.5953	44.8785	315.1243	771.8656	59.9232	387.2856	697.6249	59.2548	337.9013	692.7776	70.2403	351.7216	1123.0752	-396.7632	290.4424	993.6627	-369.1214	294.9511	989.4174	-421.4063	330.2207	840.1022	-453.8311	371.4097	766.8673	-448.7399	326.4099	763.2499	-448.3065	379.4969	687.5143	-459.1661	330.8432	684.2529	-453.5063	376.0734	906.7246	-67.257	186.8688	923.9617	-153.5096	380.4128	893.2519	-329.3759	189.2556	918.624	-256.9617	285.9517	966.1534	-42.1596	289.1996	938.7894	-367.98	133.9044	1309.0406	-323.7712	119.6335	1209.2098	-315.465	210.5828	1293.5522	-437.8236
30	0.145	208.1519	1374.5709	-207.3882	336.5938	1302.5529	-200.2435	208.8566	1315.199	-42.2831	246.8877	1311.6489	-10.1692	267.8445	1346.2109	-30.2914	228.8754	1324.4418	-373.3715	267.9476	1316.1217	-405.0452	292.0198	1351.5756	-375.5959	390.9258	1112.5061	-196.3989	158.044	1191.3103	-217.9882	314.2108	1124.9387	-2.5522	250.0277	986.3215	-33.7269	256.4109	995.2634	34.63	311.9343	841.2333	60.3268	364.138	779.5628	44.8929	315.1449	771.8099	59.9438	387.3283	697.5741	59.2542	337.8716	692.788	70.2481	351.6982	1123.0554	-396.7874	290.427	993.6497	-369.1112	294.916	989.3937	-421.3676	330.1677	840.0557	-453.8201	371.3545	766.9025	-448.732	326.3926	763.254	-448.2914	379.4744	687.5545	-459.0887	330.817	684.2663	-453.4969	376.0881	906.7184	-67.2353	186.8634	923.9197	-153.4831	380.3847	893.2475	-329.3536	189.2455	918.5988	-256.9325	285.9007	966.1662	-42.1294	289.2255	938.743	-367.9711	133.9113	1309.0911	-323.6966	119.6237	1209.2026	-315.5048	210.5501	1293.5671	-437.7919
31	0.15	208.1432	1374.5508	-207.3524	336.5852	1302.573	-200.2166	208.8489	1315.201	-42.2893	246.8478	1311.7148	-10.1578	267.7788	1346.3513	-30.1747	228.8723	1324.4152	-373.3567	267.9036	1316.1141	-405.0189	291.9188	1351.5281	-375.2216	390.9396	1112.5193	-196.381	158.0147	1191.3471	-217.9569	314.2462	1124.8931	-2.5293	250.0328	986.3132	-33.7229	256.4056	995.2341	34.6516	311.9021	841.2854	60.3469	364.1563	779.5159	44.8794	315.1801	771.7841	59.9573	387.292	697.6177	59.2907	337.8552	692.8027	70.2744	351.6997	1123.0281	-396.7747	290.4358	993.6481	-369.07	294.9107	989.3842	-421.3761	330.1802	840.1118	-453.8159	371.3243	766.91	-448.7745	326.359	763.2633	-448.2732	379.5675	687.3118	-459.0669	330.7989	684.252	-453.4689	376.0772	906.7312	-67.1965	186.542	924.1637	-153.4838	380.3692	893.217	-329.356	189.2228	918.6071	-256.9214	285.8445	966.2178	-42.1369	289.2023	938.7319	-367.959	133.9034	1309.0648	-323.7166	119.5826	1209.2367	-315.4038	210.5129	1293.58	-437.7864
32	0.155	208.139	1374.5509	-207.3436	336.4051	1302.5754	-200.1813	208.8439	1315.2056	-42.2782	246.8899	1311.6244	-10.1485	267.8419	1346.1863	-30.2469	228.8716	1324.4031	-373.3481	267.8992	1316.1123	-405.0144	291.9033	1351.5294	-375.2103	390.9304	1112.5292	-196.3875	157.9974	1191.3129	-217.9055	314.2515	1124.8652	-2.5302	250.0183	986.3257	-33.683	256.4337	995.2736	34.6432	311.9869	841.2097	60.3611	364.1149	779.5571	44.9591	315.1568	771.7766	60.0072	387.3114	697.6366	59.3235	337.9338	692.744	70.3073	351.6585	1123.0499	-396.7779	290.4199	993.6556	-369.0663	294.8782	989.3982	-421.3592	330.1166	840.0776	-453.793	371.3331	766.8455	-448.7661	326.344	763.2457	-448.2715	379.4622	687.4561	-459.138	330.788	684.2485	-453.462	376.0511	906.7418	-67.2062	186.8546	923.9153	-153.4737	380.4278	893.2811	-329.364	189.2379	918.5814	-256.9135	285.9147	966.0234	-42.122	289.1728	938.7443	-367.9497	133.8805	1309.0997	-323.6474	119.5715	1209.22	-315.3486	210.4961	1293.5726	-437.7723
33	0.16	208.1243	1374.5474	-207.3455	336.5388	1302.5431	-200.1955	208.828	1315.1898	-42.2455	246.8777	1311.6469	-10.1486	267.85	1346.2105	-30.263	228.8095	1324.4426	-373.2913	267.858	1316.1031	-404.9967	291.9286	1351.5704	-375.5519	390.8926	1112.4984	-196.3795	158.0065	1191.3117	-217.8795	314.251	1124.9158	-2.5259	250.029	986.3225	-33.6778	256.402	995.2487	34.694	311.9839	841.2201	60.41	364.0865	779.5881	44.9783	315.225	771.7532	60.0109	387.3744	697.5253	59.2912	337.9425	692.7381	70.2973	351.65	1123.0486	-396.8136	290.4406	993.6699	-369.0419	294.8625	989.3867	-421.3471	330.1461	840.0798	-453.7964	371.3041	766.8745	-448.7048	326.3295	763.2473	-448.2659	379.477	687.3886	-459.0193	330.7562	684.22	-453.4231	376.0939	906.7128	-67.2167	186.8651	923.9322	-153.4613	380.3863	893.238	-329.3409	189.1998	918.5846	-256.8867	285.9315	966.0869	-42.1087	289.1649	938.7646	-367.939	133.8666	1309.0879	-323.6204	119.5643	1209.2449	-315.2863	210.4723	1293.5952	-437.7595
34	0.165	208.1455	1374.5323	-207.3383	336.4131	1302.5868	-200.1755	208.8396	1315.2035	-42.2415	246.887	1311.6161	-10.1441	267.8701	1346.1681	-30.2371	228.8408	1324.3866	-373.3155	267.8802	1316.1064	-405.0007	291.8954	1351.6147	-375.5314	390.8628	1112.4788	-196.3607	158.0052	1191.2966	-217.8756	314.2786	1124.8658	-2.5135	250.0364	986.2991	-33.6268	256.4652	995.2826	34.6921	311.9632	841.2294	60.4234	364.1373	779.543	44.9731	315.1644	771.788	60.0316	387.361	697.5812	59.3627	337.9669	692.7377	70.3043	351.648	1123.019	-396.7946	290.3942	993.6519	-369.0252	294.8329	989.3951	-421.313	330.124	840.0742	-453.7915	371.2893	766.8019	-448.7042	326.3068	763.225	-448.2443	379.4981	687.308	-459.0668	330.7244	684.1942	-453.3813	376.0814	906.7114	-67.1974	186.853	923.9207	-153.4564	380.4348	893.2277	-329.3585	189.1929	918.574	-256.8756	285.8174	966.0703	-42.0821	289.1762	938.7148	-367.9478	133.8581	1309.1044	-323.5851	119.5366	1209.2277	-315.2731	210.4283	1293.5791	-437.716
35	0.17	208.1181	1374.53	-207.31	336.5661	1302.5569	-200.1982	208.8408	1315.2002	-42.2204	246.881	1311.6045	-10.1257	267.8496	1346.1621	-30.2114	228.8141	1324.2671	-373.1202	268.0127	1316.0588	-404.8708	291.8399	1351.6273	-375.4323	390.8068	1112.5167	-196.3165	157.9951	1191.3141	-217.8562	314.2514	1124.855	-2.4623	250.0022	986.2958	-33.6192	256.4377	995.2254	34.6951	311.9897	841.2164	60.4662	364.1734	779.5181	44.9615	315.1489	771.863	60.0492	387.1428	697.3998	59.2014	337.9922	692.7065	70.3358	351.6036	1123.0524	-396.8203	290.3809	993.6827	-369.0478	294.7966	989.3743	-421.3124	330.1004	840.0733	-453.7797	371.248	766.8246	-448.7016	326.3123	763.2348	-448.2488	379.4868	687.254	-458.9808	330.7144	684.1703	-453.3649	376.0459	906.7215	-67.1805	186.8414	923.9197	-153.4143	380.3862	893.2225	-329.3321	189.2069	918.5582	-256.8757	285.8737	966.0493	-42.0685	289.1848	938.7287	-367.946	133.8543	1309.0969	-323.5769	119.5451	1209.246	-315.257	210.4352	1293.5568	-437.7118
